<svg width="251" height="50" viewBox="0 0 251 50" fill="none" xmlns="http://www.w3.org/2000/svg">
<path d="M94.8082 31.4399C97.054 36.8618 98.2956 42.6424 98.4768 48.5L1.5232 48.5C1.70444 42.6424 2.946 36.8618 5.19184 31.4399C7.62919 25.5556 11.2017 20.209 15.7053 15.7053C20.209 11.2017 25.5556 7.6292 31.4399 5.19184C37.3241 2.75449 43.6309 1.5 50 1.5C56.3691 1.5 62.6759 2.75449 68.5601 5.19184C74.4444 7.6292 79.791 11.2017 84.2947 15.7053C88.7983 20.209 92.3708 25.5556 94.8082 31.4399Z" stroke="#003A46" stroke-width="3"/>
<path d="M40.5 24.5H59.5V48.5H40.5V24.5Z" stroke="#FF8514" stroke-width="3"/>
<path d="M56 36.5C56 37.3284 55.3284 38 54.5 38C53.6716 38 53 37.3284 53 36.5C53 35.6716 53.6716 35 54.5 35C55.3284 35 56 35.6716 56 36.5Z" fill="#003A46"/>
<path d="M126.418 6.24802C126.418 6.13602 126.418 5.80002 126.418 5.80002H119.474C119.474 5.80002 119.474 6.13602 119.474 6.24802C120.314 6.75202 120.706 7.59202 120.706 9.55202V41.304C120.706 43.264 120.314 44.104 119.474 44.608C119.474 44.72 119.474 45 119.474 45H126.418C126.418 45 126.418 44.72 126.418 44.608C125.522 44.104 125.13 43.264 125.13 41.304V9.55202C125.13 7.59202 125.522 6.75202 126.418 6.24802Z" fill="black"/>
<path d="M136.56 41.304V4.62402H136.168L130.904 5.80002C130.904 5.80002 130.904 6.13602 130.904 6.24802C131.968 6.41602 132.136 6.97602 132.136 8.93602V41.304C132.136 43.264 131.744 44.104 130.904 44.608C130.904 44.72 130.904 45 130.904 45H137.792C137.792 45 137.792 44.72 137.792 44.608C136.952 44.104 136.56 43.264 136.56 41.304Z" fill="black"/>
<path d="M163.348 26.912H164.58C164.58 26.912 168.052 26.912 168.556 26.912C167.772 20.136 161.22 17.84 156.46 18.064C150.3 18.4 141.508 22.6 141.788 32.288C142.012 41.528 149.46 45.336 157.188 45.336C165.14 45.336 168.668 40.072 169.004 36.096C169.452 31 166.54 27.752 163.348 26.912ZM153.94 18.736C159.428 17.672 163.796 21.592 164.524 26.464H146.66C147.668 22.656 150.132 19.464 153.94 18.736ZM168.5 36.208C167.94 40.576 163.74 43.88 158.924 44.104C153.212 44.328 149.012 41.752 146.94 35.872C145.988 33.184 145.82 29.88 146.548 26.912H161.052C165.308 26.912 169.172 30.384 168.5 36.208Z" fill="black"/>
<path d="M219.073 18.064V18.512C221.593 20.528 221.089 23.608 219.073 28.816L214.929 39.792L209.665 26.128C208.153 22.04 207.425 20.248 209.105 18.512V18.064H200.481V18.512C202.665 20.304 203.673 22.208 205.073 25.68L200.425 40.464L193.705 24.672C192.417 21.536 191.913 20.024 193.369 18.512V18.064H184.745V18.512C187.489 20.752 188.665 23.16 191.017 28.648L197.961 45H202.385L200.705 41.024L205.297 26.24C205.577 26.968 212.465 45 212.465 45H216.889L215.097 40.352L220.081 27.304C221.873 23.048 223.441 20.64 225.681 18.512V18.064H219.073Z" fill="black"/>
<path d="M250.107 44.608C249.267 44.104 248.875 43.264 248.875 41.304V27.416C248.875 20.528 243.947 18.064 239.299 18.064C231.795 18.064 230.059 25.008 231.515 28.256C227.203 30.048 223.787 33.408 224.739 39.12C225.467 43.152 229.947 45.336 234.539 45.336C239.915 45.336 242.995 42.088 244.451 37.16V45H250.107C250.107 45 250.107 44.72 250.107 44.608ZM238.795 18.624C242.771 18.624 244.451 22.376 244.451 26.632V27.024C243.499 26.744 242.379 26.52 241.091 26.52C238.459 26.52 235.099 26.912 232.075 28.032C230.395 23.496 233.755 18.624 238.795 18.624ZM235.883 44.608C233.083 44.776 229.835 42.928 229.107 39.904C226.699 30.048 234.987 27.024 241.091 27.024C242.827 27.024 244.171 27.416 244.451 27.528V36.152C243.331 40.184 240.755 44.328 235.883 44.608Z" fill="black"/>
<path d="M154.707 9.89934C154.316 9.50882 154.316 8.87565 154.707 8.48513L162.485 0.706956C162.876 0.316431 163.509 0.316431 163.899 0.706956C164.29 1.09748 164.29 1.73065 163.899 2.12117L156.121 9.89934C155.731 10.2899 155.097 10.2899 154.707 9.89934Z" fill="#003A46"/>
</svg>
