<svg width="761" height="957" viewBox="0 0 761 957" fill="none" xmlns="http://www.w3.org/2000/svg">
<path d="M337.32 947.512C337.32 948.312 337.144 949.032 336.792 949.672C336.44 950.296 335.936 950.832 335.28 951.28C334.72 951.632 334.088 951.904 333.384 952.096C332.696 952.288 331.952 952.384 331.152 952.384C330.096 952.384 329.168 952.256 328.368 952C327.568 951.744 326.864 951.368 326.256 950.872C324.976 949.768 324.336 948.032 324.336 945.664H325.704C325.704 949.232 327.52 951.016 331.152 951.016C332.464 951.016 333.568 950.736 334.464 950.176C334.928 949.856 335.288 949.472 335.544 949.024C335.816 948.56 335.952 948.048 335.952 947.488C335.952 946.016 335.096 944.992 333.384 944.416H333.408C333.264 944.384 333.112 944.344 332.952 944.296C332.792 944.248 332.64 944.208 332.496 944.176C331.76 943.984 331 943.792 330.216 943.6C329.448 943.392 328.68 943.2 327.912 943.024C325.848 942.288 324.816 940.944 324.816 938.992C324.816 937.376 325.472 936.144 326.784 935.296C327.792 934.64 329.136 934.312 330.816 934.312C334.8 934.312 336.872 936.272 337.032 940.192H335.664C335.568 937.184 333.952 935.68 330.816 935.68C329.472 935.68 328.4 935.928 327.6 936.424C326.656 937 326.184 937.856 326.184 938.992C326.184 940.368 327.04 941.32 328.752 941.848H328.728C329.176 941.976 329.624 942.096 330.072 942.208C330.52 942.304 330.968 942.416 331.416 942.544C331.864 942.656 332.328 942.776 332.808 942.904C333.304 943.016 333.776 943.128 334.224 943.24C336.288 943.992 337.32 945.416 337.32 947.512ZM349.151 947.176C349.071 948.024 348.895 948.768 348.623 949.408C348.351 950.048 347.967 950.584 347.471 951.016C346.543 951.848 345.383 952.264 343.991 952.264C342.263 952.264 340.887 951.632 339.863 950.368C338.919 949.2 338.447 947.752 338.447 946.024C338.447 945.096 338.575 944.232 338.831 943.432C339.087 942.632 339.431 941.936 339.863 941.344C340.375 940.672 340.999 940.16 341.735 939.808C342.487 939.456 343.327 939.28 344.255 939.28C344.895 939.28 345.487 939.392 346.031 939.616C346.591 939.824 347.079 940.136 347.495 940.552C347.911 940.952 348.255 941.44 348.527 942.016C348.815 942.592 348.999 943.232 349.079 943.936H347.735C347.575 942.896 347.183 942.088 346.559 941.512C345.935 940.92 345.167 940.624 344.255 940.624C342.783 940.624 341.663 941.152 340.895 942.208C340.159 943.216 339.791 944.488 339.791 946.024C339.791 946.728 339.879 947.368 340.055 947.944C340.247 948.504 340.527 949.016 340.895 949.48C341.647 950.44 342.679 950.92 343.991 950.92C345.031 950.92 345.903 950.616 346.607 950.008C347.343 949.4 347.735 948.456 347.783 947.176H349.151ZM351.772 952H350.428V939.664H351.772V941.128C352.204 940.616 352.796 940.192 353.548 939.856C354.3 939.52 355.22 939.368 356.308 939.4V940.744C355.524 940.696 354.844 940.792 354.268 941.032C353.708 941.272 353.236 941.6 352.852 942.016C352.484 942.416 352.212 942.888 352.036 943.432C351.86 943.96 351.772 944.504 351.772 945.064V952ZM366.952 945.76C366.952 947.52 366.48 949.008 365.536 950.224C364.496 951.584 363.096 952.264 361.336 952.264C359.592 952.264 358.184 951.584 357.112 950.224C356.2 949.056 355.744 947.568 355.744 945.76C355.744 943.968 356.208 942.48 357.136 941.296C358.208 939.952 359.616 939.28 361.36 939.28C363.104 939.28 364.496 939.96 365.536 941.32C366.48 942.536 366.952 944.016 366.952 945.76ZM365.608 945.76C365.608 944.368 365.248 943.176 364.528 942.184C363.744 941.144 362.688 940.624 361.36 940.624C360 940.624 358.944 941.144 358.192 942.184C357.44 943.128 357.064 944.32 357.064 945.76C357.064 947.184 357.432 948.384 358.168 949.36C358.92 950.4 359.984 950.92 361.36 950.92C362.688 950.92 363.744 950.4 364.528 949.36C365.248 948.368 365.608 947.168 365.608 945.76ZM369.629 949.312C369.645 950.208 370.021 950.656 370.757 950.656C370.901 950.656 371.085 950.648 371.309 950.632C371.549 950.616 371.837 950.592 372.173 950.56V951.88C371.757 951.912 371.413 951.944 371.141 951.976C370.885 951.992 370.717 952 370.637 952C369.085 952 368.301 951.128 368.285 949.384V935.032H369.629V949.312ZM373.778 949.312C373.794 950.208 374.17 950.656 374.906 950.656C375.05 950.656 375.234 950.648 375.458 950.632C375.698 950.616 375.986 950.592 376.322 950.56V951.88C375.906 951.912 375.562 951.944 375.29 951.976C375.034 951.992 374.866 952 374.786 952C373.234 952 372.45 951.128 372.434 949.384V935.032H373.778V949.312ZM391.8 952H390.48L390.456 950.2C389.976 950.84 389.376 951.344 388.656 951.712C387.936 952.08 387.144 952.264 386.28 952.264C384.552 952.264 383.2 951.568 382.224 950.176C381.376 948.992 380.952 947.528 380.952 945.784C380.952 944.072 381.384 942.6 382.248 941.368V941.392C383.24 939.984 384.584 939.28 386.28 939.28C387.16 939.28 387.96 939.456 388.68 939.808C389.416 940.144 390.016 940.632 390.48 941.272V935.032H391.8V952ZM390.48 945.784C390.48 944.28 390.144 943.072 389.472 942.16C388.736 941.136 387.672 940.624 386.28 940.624C385 940.624 384.008 941.144 383.304 942.184C382.632 943.176 382.296 944.376 382.296 945.784C382.296 947.224 382.624 948.416 383.28 949.36C383.968 950.4 384.968 950.92 386.28 950.92C387.576 950.92 388.616 950.4 389.4 949.36C390.12 948.4 390.48 947.208 390.48 945.784ZM404.546 945.76C404.546 947.52 404.074 949.008 403.13 950.224C402.09 951.584 400.69 952.264 398.93 952.264C397.186 952.264 395.778 951.584 394.706 950.224C393.794 949.056 393.338 947.568 393.338 945.76C393.338 943.968 393.802 942.48 394.73 941.296C395.802 939.952 397.21 939.28 398.954 939.28C400.698 939.28 402.09 939.96 403.13 941.32C404.074 942.536 404.546 944.016 404.546 945.76ZM403.202 945.76C403.202 944.368 402.842 943.176 402.122 942.184C401.338 941.144 400.282 940.624 398.954 940.624C397.594 940.624 396.538 941.144 395.786 942.184C395.034 943.128 394.658 944.32 394.658 945.76C394.658 947.184 395.026 948.384 395.762 949.36C396.514 950.4 397.578 950.92 398.954 950.92C400.282 950.92 401.338 950.4 402.122 949.36C402.842 948.368 403.202 947.168 403.202 945.76ZM422.487 939.544L418.575 952H417.351L414.063 941.896C413.519 943.576 412.967 945.272 412.407 946.984C411.863 948.68 411.327 950.352 410.799 952H409.503L405.687 939.544H407.055L410.175 949.624C410.703 947.96 411.239 946.272 411.783 944.56C412.343 942.848 412.879 941.176 413.391 939.544H414.711L417.975 949.672C418.503 947.976 419.031 946.28 419.559 944.584C420.087 942.872 420.607 941.192 421.119 939.544H422.487ZM433.646 952H432.326V943.96C432.326 942.92 432.046 942.104 431.486 941.512C430.926 940.92 430.142 940.624 429.134 940.624C427.966 940.624 427.046 941.048 426.374 941.896C426.07 942.312 425.83 942.776 425.654 943.288C425.494 943.8 425.414 944.368 425.414 944.992V952H424.07V939.544H425.414V940.96C425.83 940.432 426.358 940.024 426.998 939.736C427.654 939.432 428.366 939.28 429.134 939.28C430.542 939.28 431.646 939.696 432.446 940.528C433.246 941.36 433.646 942.48 433.646 943.888V952Z" fill="#C4C4C4"/>
<rect x="354" y="829" width="53" height="92" rx="26.5" fill="white" stroke="#C4C4C4" stroke-width="2"/>
<circle cx="380.5" cy="901.5" r="7.5" fill="#C4C4C4"/>
</svg>
