<svg width="1920" height="547" viewBox="0 0 1920 547" fill="none" xmlns="http://www.w3.org/2000/svg">
<rect width="1920" height="547" fill="#003A46"/>
<path d="M484 547C484 500.322 464.322 438.62 429.44 405.613C394.558 372.607 347.33 371 298 371C248.67 371 201.36 408.316 166.478 441.323C131.596 474.329 112 500.322 112 547L484 547Z" fill="#FFE9CF"/>
<path d="M282 121C282 156.899 252.957 186 227 186C201.043 186 176 163.899 176 128C176 92.1015 201.043 62 227 62C252.957 62 282 85.1015 282 121Z" fill="#FFE9CF"/>
<path d="M1920.38 0.443594C1888.82 0.326621 1847.03 19.8501 1824.58 54.6489C1802.13 89.4477 1800.87 136.671 1800.69 186.001C1800.51 235.331 1825.56 282.734 1847.75 317.698C1869.94 352.663 1887.44 372.324 1919 372.441L1920.38 0.443594Z" fill="#FFE9CF"/>
</svg>
